<?xml version="1.0" standalone="no"?><svg xmlns="http://www.w3.org/2000/svg" viewBox="0 0 1440 320"><path fill="#f53b57" fill-opacity="1" d="M0,0L24,26.7C48,53,96,107,144,133.3C192,160,240,160,288,144C336,128,384,96,432,106.7C480,117,528,171,576,186.7C624,203,672,181,720,170.7C768,160,816,160,864,186.7C912,213,960,267,1008,282.7C1056,299,1104,277,1152,240C1200,203,1248,149,1296,133.3C1344,117,1392,139,1416,149.3L1440,160L1440,320L1416,320C1392,320,1344,320,1296,320C1248,320,1200,320,1152,320C1104,320,1056,320,1008,320C960,320,912,320,864,320C816,320,768,320,720,320C672,320,624,320,576,320C528,320,480,320,432,320C384,320,336,320,288,320C240,320,192,320,144,320C96,320,48,320,24,320L0,320Z"></path></svg>