<?xml version="1.0" standalone="no"?><svg xmlns="http://www.w3.org/2000/svg" viewBox="0 0 1440 320"><path fill="#f53b57" fill-opacity="1" d="M0,0L30,42.7C60,85,120,171,180,176C240,181,300,107,360,106.7C420,107,480,181,540,176C600,171,660,85,720,90.7C780,96,840,192,900,213.3C960,235,1020,181,1080,176C1140,171,1200,213,1260,224C1320,235,1380,213,1410,202.7L1440,192L1440,320L1410,320C1380,320,1320,320,1260,320C1200,320,1140,320,1080,320C1020,320,960,320,900,320C840,320,780,320,720,320C660,320,600,320,540,320C480,320,420,320,360,320C300,320,240,320,180,320C120,320,60,320,30,320L0,320Z"></path></svg>